HIERARCHY
ROOT Hips
{
  OFFSET 40.9192 92.6879 18.85
  CHANNELS 6 Xposition Yposition Zposition Zrotation Xrotation Yrotation
  JOINT LeftUpLeg
  {
    OFFSET 8.64259 1.95398 -2.38835
    CHANNELS 3 Zrotation Xrotation Yrotation
    JOINT LeftLeg
    {
      OFFSET 43.7702 0 0
      CHANNELS 3 Zrotation Xrotation Yrotation
      JOINT LeftFoot
      {
        OFFSET 40.6238 0 0
        CHANNELS 3 Zrotation Xrotation Yrotation
        JOINT LeftToeBase
        {
          OFFSET 12.7242 0 0
          CHANNELS 3 Zrotation Xrotation Yrotation
          End Site
          {
            OFFSET 0 0 0
          }
        }
      }
    }
  }
  JOINT RightUpLeg
  {
    OFFSET -8.2249 1.95398 -2.59336
    CHANNELS 3 Zrotation Xrotation Yrotation
    JOINT RightLeg
    {
      OFFSET 43.5653 0 0
      CHANNELS 3 Zrotation Xrotation Yrotation
      JOINT RightFoot
      {
        OFFSET 40.6238 0 0
        CHANNELS 3 Zrotation Xrotation Yrotation
        JOINT RightToeBase
        {
          OFFSET 12.7242 0 0
          CHANNELS 3 Zrotation Xrotation Yrotation
          End Site
          {
            OFFSET 0 0 0
          }
        }
      }
    }
  }
  JOINT Spine
  {
    OFFSET 0.165834 0.87714 6.61349
    CHANNELS 3 Zrotation Xrotation Yrotation
    JOINT Spine1
    {
      OFFSET 7.38963 1.71661e-005 0
      CHANNELS 3 Zrotation Xrotation Yrotation
      JOINT Spine2
      {
        OFFSET 11.9445 1.14441e-005 0
        CHANNELS 3 Zrotation Xrotation Yrotation
        JOINT Spine3
        {
          OFFSET 14.7254 4.19617e-005 0
          CHANNELS 3 Zrotation Xrotation Yrotation
          JOINT Spine4
          {
            OFFSET 10.9679 0 0
            CHANNELS 3 Zrotation Xrotation Yrotation
            JOINT RightShoulder
            {
              OFFSET 2.46616 -1.6653 3.69651
              CHANNELS 3 Zrotation Xrotation Yrotation
              JOINT RightArm
              {
                OFFSET 13.0012 0 0
                CHANNELS 3 Zrotation Xrotation Yrotation
                JOINT RightForeArm
                {
                  OFFSET 28.7848 1.52588e-005 0
                  CHANNELS 3 Zrotation Xrotation Yrotation
                  JOINT RightHand
                  {
                    OFFSET 26.5688 1.52588e-005 0
                    CHANNELS 3 Zrotation Xrotation Yrotation
                    End Site
                    {
                      OFFSET 0 0 0
                    }
                  }
                }
              }
            }
            JOINT LeftShoulder
            {
              OFFSET 2.38034 -1.29275 -3.7523
              CHANNELS 3 Zrotation Xrotation Yrotation
              JOINT LeftArm
              {
                OFFSET 16.3182 6.10351e-005 0
                CHANNELS 3 Zrotation Xrotation Yrotation
                JOINT LeftForeArm
                {
                  OFFSET 27.0901 0 0
                  CHANNELS 3 Zrotation Xrotation Yrotation
                  JOINT LeftHand
                  {
                    OFFSET 24.5451 1.52588e-005 0
                    CHANNELS 3 Zrotation Xrotation Yrotation
                    End Site
                    {
                      OFFSET 0 0 0
                    }
                  }
                }
              }
            }
            JOINT Neck
            {
              OFFSET 5.0226 -0.0266342 0
              CHANNELS 3 Zrotation Xrotation Yrotation
              JOINT Head
              {
                OFFSET 6.69363 2.86102e-005 0
                CHANNELS 3 Zrotation Xrotation Yrotation
                End Site
                {
                  OFFSET 0 0 0
                }
              }
            }
          }
        }
      }
    }
  }
}
MOTION
Frames:	9
Frame Time:	0.0416667
-91.2433 91.2392 -94.0986 68.0686 -58.1385 71.6198 -166.849 45.6364 90.5332 -29.696 10.4703 -6.82986 60.1915 -0.254738 0.668877 46.1491 16.421 17.6237 173.667 -3.31957 86.7825 -26.344 -24.1044 -5.53447 65.7787 -3.88181 -2.16549 51.3419 0.878033 -1.80777 1.64568 8.36322 -89.0576 10.1244 3.70893 1.56159 -1.54204 3.77404 1.39665 -24.101 3.06816 2.60463 -4.0884 3.06818 2.60463 94.3337 -36.188 -96.6376 30.9007 -10.8626 -16.3134 -18.7307 -2.9958 -93.0423 -22.2012 -0.0527785 -4.42133 -93.3321 -46.3541 72.7538 -43.1005 18.2905 35.7568 -4.32092 -0.497454 -51.7684 28.3812 1.52277 1.48749 16.3192 -0.0576212 2.02125 3.42568 -0.575433 -0.133031 
-85.0366 89.8392 -88.2302 63.3754 -58.7209 67.4954 -161.639 48.7404 87.6958 -39.3533 11.115 -8.86057 63.3399 2.50859 2.49023 41.7564 11.3483 13.1508 174.965 -2.61445 85.946 -30.5187 -23.189 -7.48684 56.9518 -0.553945 -0.22294 55.6195 1.82135 2.7385 1.81266 8.34173 -88.7197 10.1486 4.19574 2.18852 -1.5171 4.28798 2.00151 -24.0751 3.34427 3.3487 -4.06244 3.34428 3.34871 94.4454 -36.0159 -96.465 31.8541 -9.36357 -13.9777 -19.7214 -0.961304 -97.4083 -24.8762 -0.059939 -4.26929 -93.208 -45.4575 72.6866 -43.5428 16.407 37.5475 -3.44369 -0.875339 -54.3237 26.6675 1.52529 1.86316 16.84 -0.874079 0.0843101 4.73208 -0.931778 -0.718691 
-78.076 88.9822 -81.8985 59.4823 -57.245 65.6158 -159.931 49.3309 86.0783 -48.449 9.123 -8.76206 71.1338 8.82463 3.0532 34.7166 4.54149 7.15887 177.332 1.30484 86.3754 -36.6257 -18.9468 -7.04744 39.7053 4.88281 4.81739 47.3776 1.48336 3.29592 1.71409 8.26019 -88.5909 10.3068 4.05927 2.44862 -1.35979 4.16306 2.26742 -23.9099 3.13606 3.55542 -3.89726 3.13608 3.55541 94.6824 -38.1545 -95.5987 32.0515 -11.011 -8.71306 -18.0671 -1.00079 -97.6664 -25.4117 0.252715 -5.75688 -93.4096 -46.3593 72.637 -40.7415 15.0076 35.2326 -3.29144 -1.47127 -54.9555 27.9382 1.43457 1.2493 18.1647 -1.00482 -1.09863 5.15671 -0.829341 -1.67123 
-71.6134 88.0578 -75.9372 59.4987 -55.3572 66.378 -161.093 47.416 84.8187 -54.6984 9.52129 -7.19968 74.2681 12.5273 5.98023 36.1971 5.84215 3.66825 -178.535 11.219 89.1694 -54.5586 -7.90256 -6.78077 31.2008 5.74532 6.61745 30.5339 0.286723 -6.06235 1.38123 8.42488 -88.4861 9.97667 3.44081 2.72169 -1.69227 3.55719 2.56758 -24.2256 2.46433 3.62946 -4.21297 2.46433 3.62945 93.8988 -41.084 -96.4091 31.5144 -14.5736 -1.27706 -14.9247 -3.31597 -92.3721 -27.0583 -0.334551 -3.27388 -94.9888 -47.4936 70.5685 -36.177 11.5451 30.8859 -2.21141 -2.07822 -57.1156 28.6477 1.55686 1.56447 18.3871 -0.611324 -1.63225 7.59728 -0.379543 -2.07278 
-65.5231 87.254 -69.9994 61.1783 -52.587 66.5813 -162.767 42.6294 82.6585 -57.3066 11.0542 -6.24812 75.9206 15.264 8.31599 39.5637 8.66092 3.81661 -175.697 24.7324 89.3108 -75.8556 -0.822193 -5.00412 34.5146 3.49729 3.96072 27.4484 0.495866 -7.4272 0.833674 8.69553 -88.2491 9.43645 2.44998 3.28794 -2.23605 2.59225 3.17703 -24.7449 1.3494 3.87146 -4.73227 1.3494 3.87145 93.2912 -43.5911 -96.9473 33.0162 -17.4012 6.15727 -10.4341 -7.56794 -83.0432 -26.2525 -0.0140749 -4.70061 -96.7822 -47.6743 67.9236 -30.8436 8.18427 24.1054 -2.08132 -2.95959 -60.8866 30.0835 1.58801 1.38816 18.4633 -0.164415 -2.94202 9.21231 0.470063 -1.3392 
-59.0661 87.1949 -64.1117 61.1104 -50.1937 65.8635 -163.927 36.0963 81.7596 -54.9444 12.8144 -6.5337 75.1878 16.304 10.6012 45.0722 13.3595 4.73432 -173.441 39.9129 88.3854 -90.6601 0.379612 -3.6078 33.521 3.25805 3.74283 28.605 0.367041 -5.70153 0.37917 8.72082 -88.1688 9.39448 1.57924 3.51191 -2.28003 1.73221 3.43912 -24.7783 0.451634 3.82371 -4.76563 0.451636 3.82372 92.9066 -45.614 -97.1805 34.8798 -18.9074 14.0843 -5.7058 -11.6385 -70.0275 -28.3288 -0.173178 -4.00509 -97.0797 -48.1268 67.6314 -24.0334 7.27578 14.0039 1.52666 -1.24991 -64.2233 31.0108 1.79201 1.90241 19.0804 0.247992 -3.19809 8.71494 0.948541 -1.43826 
-51.8181 87.9197 -58.2518 64.8064 -47.8274 71.0229 -167.18 26.6164 84.5655 -49.9859 16.4357 -5.67321 74.3668 16.6774 11.9321 46.8595 15.2266 6.96849 -175.666 50.8801 91.0378 -96.9624 0.255142 -2.65586 35.7573 2.85177 3.17112 30.9658 0.442118 -7.29506 -0.0311144 8.77686 -88.5492 9.30635 0.589107 2.83102 -2.36753 0.713114 2.80238 -24.8778 -0.288575 2.87719 -4.86514 -0.288566 2.8772 92.009 -47.4076 -98.2621 36.4913 -19.4811 24.6621 -0.0140442 -14.4061 -60.8104 -26.661 -0.218236 -3.85077 -95.7117 -46.3263 69.094 -22.9761 2.75089 7.80061 4.07894 -1.74576 -73.2377 32.4632 1.92784 2.06835 17.7467 0.922428 -4.5177 8.11373 2.06432 -0.223893 
-43.6847 90.0008 -51.962 67.7738 -43.8618 76.8697 -170.265 16.4719 88.2356 -41.8394 19.8051 -3.42671 70.3082 12.5039 9.13704 47.9077 16.3149 7.91615 177.158 57.1837 96.3243 -93.7866 -1.72142 -1.94431 42.4303 2.22356 2.20348 31.5815 0.484371 -8.88297 -0.668474 8.70082 -89.2071 9.47978 -0.975793 1.64943 -2.19189 -0.902266 1.69077 -24.7246 -1.4264 1.27998 -4.71198 -1.4264 1.27997 92.2196 -49.0545 -97.597 36.0523 -21.0699 34.3575 2.15062 -16.7658 -57.2017 -23.8164 -0.353402 -3.16191 -93.481 -44.4523 71.9631 -25.6693 -2.1666 6.08726 8.39481 0.642968 -88.0401 31.3629 1.96501 2.41085 17.2416 2.30753 -5.18919 5.93027 3.73268 1.51467 
-34.8568 92.5574 -44.8668 68.9013 -44.657 81.4958 -170.221 6.3809 93.6898 -31.5321 23.0284 -1.90589 57.1663 -0.037134 1.51808 52.2162 20.5473 9.56546 172.543 57.8722 102.452 -81.9108 -1.03665 -0.729792 44.6953 2.48368 2.40722 34.0022 0.377039 -6.05192 -0.800009 8.56237 -89.7868 9.75359 -1.49826 0.541117 -1.91659 -1.47297 0.606535 -24.4589 -1.59159 0.0656992 -4.44626 -1.5916 0.0656903 91.6011 -50.2246 -98.3202 35.8368 -21.0106 43.2983 2.82406 -17.2951 -56.6109 -21.9299 -0.428863 -2.68127 -91.8057 -43.9417 74.4617 -25.9478 -2.49696 5.47992 9.80282 -3.85692 -98.6779 32.3204 1.87785 1.92783 14.4991 4.09268 -6.3589 5.20598 5.89392 4.52443 
